PathFileType	4	(X/Y/Z)	17_2_105_p1_0-386.trc
DataRate	CameraRate	NumFrames	NumMarkers	Units	OrigDataRate	OrigDataStartFrame	OrigNumFrames
59.0	59.0	7	27	m	59.0	241	387
Frame#	Time	RHip			RKnee			RAnkle			RBigToe			RSmallToe			RHeel			LHip			LKnee			LAnkle			LBigToe			LSmallToe			LHeel			Neck			Head			Nose			RShoulder			RElbow			RWrist			RThumb			RIndex			RPinky			LShoulder			LElbow			LWrist			LThumb			LIndex			LPinky			
		X1	Y1	Z1	X2	Y2	Z2	X3	Y3	Z3	X4	Y4	Z4	X5	Y5	Z5	X6	Y6	Z6	X7	Y7	Z7	X8	Y8	Z8	X9	Y9	Z9	X10	Y10	Z10	X11	Y11	Z11	X12	Y12	Z12	X13	Y13	Z13	X14	Y14	Z14	X15	Y15	Z15	X16	Y16	Z16	X17	Y17	Z17	X18	Y18	Z18	X19	Y19	Z19	X20	Y20	Z20	X21	Y21	Z21	X22	Y22	Z22	X23	Y23	Z23	X24	Y24	Z24	X25	Y25	Z25	X26	Y26	Z26	X27	Y27	Z27	
241	4.084745762711864	0.2617877876052269	0.5519373780638352	0.8444371214267757	0.2410641455974095	0.5605276869903232	1.2467192865672458	0.23724116886636104	0.7257874869839549	1.6961765686415835	0.23379160278631458	0.5196706683741127	1.7278454763834423	0.2899577771773028	0.5619199381335477	1.7325010898984345	0.20717677199648193	0.8142746166826501	1.7599162811238975	0.04334400314459714	0.5467202204833715	0.856482998643004	0.05122076005980326	0.569809323218047	1.2611859205000406	0.03496332903010908	0.6884560627987499	1.70266267686627	0.08160146055025584	0.4818851815284809	1.715997565699042	0.02126867778148412	0.5317575190592232	1.73289161658209	0.04371202304290168	0.7819373715827209	1.7721309144635697	0.13971683225200363	0.48118967537817775	0.20743454150053436	0.16484920002255346	0.3961498261882575	-0.04016852357298853	0.17103416515082245	0.35276338875553137	0.08667546815052606	0.3004479133858392	0.48163448516842217	0.30859336045534835	0.4222910479570668	0.5120731457397854	0.5395732183083608	0.3577967332079809	0.2708732305293694	0.6079442298843182	0.2742780361215208	0.176599057046709	0.6268874547950131	0.27560835585703786	0.15582330630098962	0.636282799884954	0.29422317596713415	0.17447682672272385	0.6841674426328455	-0.010656366268440721	0.45617408088976724	0.31805042439323883	-0.07277174965928558	0.5103621910502072	0.5869730671860245	-0.08185962412572412	0.38652098360429576	0.8284936572668099	-0.027884667463481966	0.332615236877372	0.913913094145978	-0.04506157523302882	0.3286681686330711	0.9548595899470853	-0.08529848924900169	0.41967617098095966	0.9608754048163953
242	4.101694915254237	0.25750531536648374	0.5674206000404733	0.8518026908012917	0.2363809905655976	0.5551789507174034	1.2414082604535708	0.23729118093212806	0.7254949495062332	1.6960964848637978	0.23570135112062235	0.509039760786694	1.7226308701851833	0.28987066935541195	0.5607420086424331	1.731938857509582	0.20721872337672712	0.8142124094558186	1.759921021077758	0.03965376780110397	0.5439275930559597	0.8598712469409167	0.04355213802312242	0.5844916805375017	1.2707272824443818	0.03504508285536171	0.6881679135337825	1.7027920329530846	0.08164217668314726	0.48199531541317	1.7159520042871466	0.02138179559876197	0.5316773779680484	1.7326377683273175	0.043763559342170674	0.7817160603181516	1.7720529119799555	0.1343939621634583	0.4660299572867262	0.20761293377791346	0.1648117505770304	0.39723345398201126	-0.03698671312961299	0.1764296363996303	0.34160200438003024	0.08702271176340352	0.30032894956670214	0.48101721749421655	0.3050289793516417	0.410779564995193	0.5106111638215747	0.54026984699774	0.3582524820180017	0.27975909701735807	0.6301110131914655	0.27922730311461424	0.16257524159004869	0.6509214027993959	0.28454515309767975	0.15374006514497932	0.6558749941151474	0.2930142943629444	0.1849921380848	0.6944484455725621	-0.010921596693496712	0.45598889446097063	0.321645431357384	-0.07319333073642291	0.510376402922059	0.5904303549935153	-0.08166821711930482	0.3885080545069983	0.8335899374510259	-0.027807245005659384	0.34831836662117166	0.9298009814715439	-0.04512371352876098	0.33045115491958094	0.9673274256429392	-0.08941607879047761	0.4187703722562485	0.9731923832731939
243	4.11864406779661	0.2676500032717371	0.5544574564149395	0.8526722003190844	0.24080289855534906	0.5573317985506129	1.2459033352620625	0.23726814227430243	0.725594813912618	1.6962022092992088	0.2318093022255164	0.5056611748261545	1.7212107324735946	0.28991623576636627	0.5598317098843626	1.7315093836502284	0.20711623126852013	0.814337643666636	1.7599820835542443	0.04033330516186885	0.5458280227656473	0.8691889584079269	0.04406755829949147	0.5834976231078485	1.274686162908852	0.035578922351060145	0.6868800882414005	1.7068252680346387	0.08227344690152469	0.480373147532031	1.7200095224497285	0.02833902556707161	0.5175489342940881	1.7251255837291228	0.043748989556425255	0.7821903843112632	1.772083829917614	0.134432306371482	0.4672681608517352	0.21139307932362403	0.1648254870281659	0.3971014670004094	-0.03677529691651816	0.17834924731229942	0.3525329171549871	0.08645350950583798	0.29600096534757814	0.4784233501208481	0.3087450153260812	0.40591726431593556	0.5099355903966631	0.5440333354020324	0.3743576300130217	0.2754515030436622	0.6620298300155428	0.2894357571565568	0.1573539785028654	0.6667941035172584	0.29209810081723997	0.1621583490405576	0.6891026823114682	0.32189936521009904	0.18764183400984938	0.729337660877033	-0.011890735387904996	0.44522663345438374	0.3248114251431422	-0.07322695275789459	0.5102850656216816	0.5906344587976795	-0.08184591703909912	0.3886693146488058	0.8412967163070206	-0.027421130507760502	0.35004622394002455	0.9384619708750213	-0.047813471679560564	0.3302590072422842	0.9722864611713442	-0.0994656359442884	0.4294828892575059	0.9815821341625753
244	4.135593220338983	0.26780046229297827	0.5543197568644946	0.8527530374267048	0.23691872161887956	0.55401721827148	1.2451634827174565	0.23733421061715795	0.7256026919325466	1.696186349496816	0.2337607848577325	0.5192038604401984	1.7278821973790999	0.2899890761639326	0.5612521890143533	1.7321909366574264	0.2072972410152382	0.814368408633317	1.7600381086609138	0.03995588771272605	0.5439327934330351	0.8634674102860523	0.05079666659654214	0.5692873307332996	1.2692366634138343	0.035621021795613	0.6868146341219029	1.7068303885367673	0.08157268558673489	0.48197393013507794	1.7158416926008595	0.02835457352177462	0.5176298735113464	1.7249123218789826	0.051194362810025616	0.7648942915209495	1.7632463849861875	0.13435380837767352	0.4675493014125506	0.21168942717739692	0.1688174875723996	0.40001324147225015	-0.03050930563507905	0.17852420518665177	0.35247420513539846	0.08980006541094707	0.296199260266659	0.4801239380946057	0.31225327282958987	0.38807833756147103	0.5371442126831676	0.552237161775131	0.39140602661903745	0.2810606193225073	0.6867408770974445	0.3187064256683228	0.16536011272876608	0.7219904051319206	0.3294259760313814	0.14187579558121816	0.722555695704507	0.35567005456985973	0.19744739082124105	0.7528733754474725	-0.011967736266647905	0.446605577727393	0.3284575437339513	-0.07333219494206662	0.5100227101181495	0.597835022368943	-0.08184544078818017	0.3885851062455686	0.841503567426007	-0.03486163427111027	0.3499303481188862	0.9395989796323768	-0.047945765352673975	0.32962525768424344	0.975471672086068	-0.08951557753852632	0.41956604642235634	0.9790664975714733
245	4.1525423728813555	0.2634982763741727	0.5811094827651622	0.8502115425472518	0.2368483967464576	0.5539750397158294	1.2452485136283065	0.23727984330005064	0.7254393927929724	1.6961882295033104	0.23376204453744467	0.5186361560597583	1.72772084771489	0.28968257576315054	0.560315244342943	1.731942176451976	0.2072362626721219	0.8144309453012941	1.7600846064348847	0.0382712539870859	0.572031998417414	0.8599393167640773	0.05080262837271722	0.5691819130077704	1.2691686718640494	0.03402164854091215	0.6880190202388419	1.7084617831807443	0.0822957358566654	0.4804985059148125	1.7195882491205758	0.03551221433741925	0.5033347331616193	1.7166421220941672	0.05005806218468397	0.7649914119806331	1.7687659613057054	0.134251581156603	0.46744401574277955	0.21491364961318313	0.16911010476579522	0.3998287164108681	-0.02715361209535938	0.18070183740727644	0.36372976627910913	0.09255717072283069	0.29589034730211905	0.4784912631681457	0.3090199339373386	0.3784065974213262	0.5499953534690336	0.5578597524539928	0.3959118176050558	0.3020780314708864	0.6980464140657737	0.33615337572069265	0.15214491836104296	0.7381153595161093	0.34815752761240987	0.14301969978937207	0.7442713065502167	0.3714228232424682	0.20904655627673996	0.7785559252001613	-0.01299082051655225	0.436098218412576	0.3317192688132983	-0.07388932404071451	0.4988635426692913	0.6007260211804158	-0.07095016657104031	0.3810089399958597	0.8435230113754385	-0.033977092757664265	0.3614647682029112	0.9430124571794359	-0.048079124620594056	0.3300390836507218	0.9762190772239799	-0.08593249860162086	0.42018280699497285	0.9831157136742917
246	4.169491525423729	0.2635872222231042	0.5814125313780867	0.8500957273248644	0.23997000794549256	0.5546923471516445	1.2411393233225616	0.2372066712533891	0.7256348146575587	1.696314963477514	0.23389506400287885	0.5188469631055174	1.7276814288482407	0.2898402497828833	0.5607612124353504	1.732099079757936	0.2072111503856211	0.8146238835489807	1.7602191846545316	0.04153813763393082	0.5602441826524843	0.8622365437253894	0.05129827438686776	0.5665623114616712	1.2597848967215075	0.034539835787970215	0.6869362456309233	1.7123443106147664	0.08228406598497087	0.48031959139793307	1.7196406903781194	0.027445551733493223	0.5178403021988092	1.7284610228522652	0.05067024301653241	0.7676919172032701	1.7740634567055074	0.13019551659602102	0.4655186246674366	0.21558006308917704	0.16753312001831455	0.3901379079385402	-0.022780427722578163	0.1787029840501476	0.3520196914617914	0.09333924262389057	0.2960298332004552	0.479504425652144	0.3124795896318725	0.37370334848617914	0.5478186158920384	0.5577680428770742	0.40392341979434176	0.3023748822775434	0.7086666815638554	0.3488017163837835	0.1755266979722402	0.7677367990927342	0.3673370663499188	0.17311276439580972	0.7818350900129509	0.3902264950084395	0.22132990242499606	0.8067008694123559	-0.013126541907187105	0.4356729030356195	0.33206536905422196	-0.07387025587012613	0.4987224542144946	0.600904544297547	-0.07086228072673739	0.38073953163606333	0.8437226853415809	-0.03241307655626861	0.3745319443778353	0.9573237693860787	-0.039720304193249484	0.3449981557810951	0.9825594088486875	-0.08561919122107738	0.41999619534661137	0.986334329334194
247	4.186440677966102	0.2635574634907293	0.5816061470535019	0.8500551553947704	0.24118407929224914	0.5559280991946848	1.2496510292386933	0.23737098756180042	0.7254621764729535	1.6962619777354677	0.23386546534831304	0.5186367035093625	1.727750671538627	0.2898158833265632	0.5607137128195445	1.7321806736783882	0.20739990571675718	0.8146214723455786	1.760289852588013	0.041862418747196824	0.5615141952708482	0.8673270765976144	0.05150044174897774	0.5663747106553975	1.2598557146771063	0.034471667048459144	0.6869775866321594	1.7127563294068544	0.08219829923917467	0.48041679398130843	1.7199331910938107	0.027321203995144528	0.5180267655699691	1.7288115797496477	0.043180061105797155	0.7857307615436562	1.783111188885874	0.13008856545888167	0.4655424240011649	0.2157218812895498	0.16771132374011397	0.388516091406634	-0.022685825434269464	0.17713409544262546	0.34110111967350903	0.10034031719020212	0.28967936298684605	0.4659609106327104	0.3158853808076572	0.36617234796914544	0.5497369996593245	0.5586985828542215	0.4044101631668738	0.3264574874113217	0.7398482965183967	0.3654121185456987	0.19459156460022964	0.8089308136874624	0.3732809734097265	0.19627582252225312	0.8222649635801933	0.40311789911203266	0.255063631718042	0.8475571786632976	-0.016900604208728118	0.4324626570026903	0.332388922219753	-0.07395645480042873	0.49877983985852076	0.6011689286439748	-0.07071301714202011	0.3804854190762291	0.8478314529475918	-0.030779065613342958	0.37604185005849533	0.9612464277866893	-0.03567062617196754	0.34702699558812145	0.9831520618810676	-0.08705398721792772	0.4321933960822413	0.9997736049714121
